<svg width="28" height="26" viewBox="0 0 28 26" fill="none" xmlns="http://www.w3.org/2000/svg">
<path d="M7.18152 15.4656L6.32895 18.537L3.2128 18.6006C2.28153 16.9338 1.7533 15.0266 1.7533 13C1.7533 11.0403 2.24718 9.1922 3.12262 7.56494H3.12329L5.89754 8.05576L7.11283 10.7169C6.85847 11.4325 6.71983 12.2007 6.71983 13C6.71993 13.8675 6.88277 14.6987 7.18152 15.4656Z" fill="#FBBB00"/>
<path d="M26.0326 10.7922C26.1732 11.5071 26.2466 12.2455 26.2466 13C26.2466 13.8461 26.1544 14.6715 25.9788 15.4676C25.3826 18.1767 23.8248 20.5422 21.6669 22.2163L21.6662 22.2156L18.1719 22.0436L17.6774 19.0643C19.1093 18.2539 20.2283 16.9857 20.8178 15.4676H14.2692V10.7922H20.9133H26.0326Z" fill="#518EF8"/>
<path d="M21.6661 22.2158L21.6668 22.2164C19.5681 23.8444 16.9021 24.8184 13.9999 24.8184C9.33609 24.8184 5.28125 22.3028 3.21277 18.6009L7.18149 15.4658C8.21571 18.1294 10.8783 20.0256 13.9999 20.0256C15.3416 20.0256 16.5986 19.6755 17.6772 19.0645L21.6661 22.2158Z" fill="#28B446"/>
<path d="M21.817 3.90265L17.8496 7.03706C16.7333 6.3637 15.4137 5.97471 14 5.97471C10.8078 5.97471 8.09534 7.95781 7.11293 10.7169L3.12335 7.565H3.12268C5.16088 3.77279 9.26686 1.18188 14 1.18188C16.9715 1.18188 19.696 2.20333 21.817 3.90265Z" fill="#F14336"/>
</svg>
